# xmcd
#
# Track frame offsets: 
#        182
#        7865
#        56162
#        109987
#        125225
#        151020
#        173612
#        220387
#        257720
#        273377
#        280890
#        303330
#
# Disc length: 4388 seconds
#
# Revision: 0
# Processed by: cddbd v1.5.2PL0 Copyright (c) Steve Scherf et al.
# Submitted via: ExactAudioCopy v0.95b4
#
DISCID=a811220c
DTITLE=Prince and The New Power Generation - Live At The Rex CD1
DYEAR=1993
DGENRE=R&B
TTITLE0=Intro Sacrifice of Victor
TTITLE1=House InOrder
TTITLE2=The Under Taker (Staples)
TTITLE3=Back MF In The House
TTITLE4=Race
TTITLE5=Blue Light
TTITLE6=Delirious
TTITLE7=Drum Solo (M. Bland)
TTITLE8=Bass Solo (S. Thompson)
TTITLE9=U Got Time Baby 1
TTITLE10=U Got Time Baby 2
TTITLE11=U Got Time Baby 3
EXTD=
EXTT0=
EXTT1=
EXTT2=
EXTT3=
EXTT4=
EXTT5=
EXTT6=
EXTT7=
EXTT8=
EXTT9=
EXTT10=
EXTT11=
PLAYORDER=
